# MagicaVoxel @ Ephtracy

# group
o 

# material
mtllib ATMHouse-11.mtl
usemtl palette

# normals
vn -1 0 0
vn 1 0 0
vn 0 0 1
vn 0 0 -1
vn 0 -1 0
vn 0 1 0

# texcoords
vt 0.0722656 0.5
vt 0.0761719 0.5
vt 0.970703 0.5

# verts
v -4.7 0.2 3.9
v -4.7 0.2 3.4
v -4.7 1.6 3.9
v -4.7 1.6 3.4
v -4.7 1.8 3.9
v -4.7 1.8 3.4
v -4.7 2.2 3.9
v -4.7 2.2 3.4
v -4.6 0.2 4.1
v -4.6 0.2 3.9
v -4.6 0.2 3.4
v -4.6 0.2 3.2
v -4.6 1.6 4.1
v -4.6 1.6 4
v -4.6 1.6 3.9
v -4.6 1.6 3.4
v -4.6 1.6 3.2
v -4.6 1.8 4.1
v -4.6 1.8 4
v -4.6 1.8 3.9
v -4.6 1.8 3.4
v -4.6 1.8 3.2
v -4.6 2.2 4.1
v -4.6 2.2 3.9
v -4.6 2.2 3.4
v -4.6 2.2 3.2
v -4.5 0.2 4.2
v -4.5 0.2 4.1
v -4.5 0.2 3.2
v -4.5 0.2 3.1
v -4.5 1.6 4.2
v -4.5 1.6 4.1
v -4.5 1.6 4
v -4.5 1.6 3.4
v -4.5 1.6 3.2
v -4.5 1.6 3.1
v -4.5 1.8 4.2
v -4.5 1.8 4.1
v -4.5 1.8 4
v -4.5 1.8 3.4
v -4.5 1.8 3.2
v -4.5 1.8 3.1
v -4.5 2.2 4.2
v -4.5 2.2 4.1
v -4.5 2.2 3.2
v -4.5 2.2 3.1
v -4.4 0.2 4.3
v -4.4 0.2 4.2
v -4.4 0.2 3.1
v -4.4 0.2 3
v -4.4 1.6 4.3
v -4.4 1.6 4.2
v -4.4 1.6 4.1
v -4.4 1.6 3.2
v -4.4 1.6 3.1
v -4.4 1.6 3
v -4.4 1.8 4.3
v -4.4 1.8 4.2
v -4.4 1.8 4.1
v -4.4 1.8 3.2
v -4.4 1.8 3.1
v -4.4 1.8 3
v -4.4 2.2 4.3
v -4.4 2.2 4.2
v -4.4 2.2 3.1
v -4.4 2.2 3
v -4.2 0.2 4.4
v -4.2 0.2 4.3
v -4.2 0.2 3
v -4.2 0.2 2.9
v -4.2 1.6 4.4
v -4.2 1.6 4.3
v -4.2 1.6 4.2
v -4.2 1.6 3.1
v -4.2 1.6 3
v -4.2 1.6 2.9
v -4.2 1.8 4.4
v -4.2 1.8 4.3
v -4.2 1.8 4.2
v -4.2 1.8 3.1
v -4.2 1.8 3
v -4.2 1.8 2.9
v -4.2 2.2 4.4
v -4.2 2.2 4.3
v -4.2 2.2 3
v -4.2 2.2 2.9
v -3.7 2.1 4.2
v -3.7 2.1 4.1
v -3.7 2.1 3.2
v -3.7 2.1 3.1
v -3.7 2.2 4.2
v -3.7 2.2 4.1
v -3.7 2.2 3.2
v -3.7 2.2 3.1
v -3.6 2.1 4.1
v -3.6 2.1 4
v -3.6 2.1 3.3
v -3.6 2.1 3.2
v -3.6 2.2 4.1
v -3.6 2.2 4
v -3.6 2.2 3.3
v -3.6 2.2 3.2
v -3.5 2.1 4
v -3.5 2.1 3.9
v -3.5 2.1 3.4
v -3.5 2.1 3.3
v -3.5 2.2 4
v -3.5 2.2 3.9
v -3.5 2.2 3.4
v -3.5 2.2 3.3
v -3.4 2.1 3.9
v -3.4 2.1 3.4
v -3.4 2.2 3.9
v -3.4 2.2 3.4
v -4.5 2.1 3.9
v -4.5 2.1 3.4
v -4.5 2.2 3.9
v -4.5 2.2 3.4
v -4.4 2.1 4
v -4.4 2.1 3.9
v -4.4 2.1 3.4
v -4.4 2.1 3.3
v -4.4 2.2 4
v -4.4 2.2 3.9
v -4.4 2.2 3.4
v -4.4 2.2 3.3
v -4.3 2.1 4.1
v -4.3 2.1 4
v -4.3 2.1 3.3
v -4.3 2.1 3.2
v -4.3 2.2 4.1
v -4.3 2.2 4
v -4.3 2.2 3.3
v -4.3 2.2 3.2
v -4.2 2.1 4.2
v -4.2 2.1 4.1
v -4.2 2.1 3.2
v -4.2 2.1 3.1
v -4.2 2.2 4.2
v -4.2 2.2 4.1
v -4.2 2.2 3.2
v -4.2 2.2 3.1
v -3.7 0.2 4.4
v -3.7 0.2 4.3
v -3.7 0.2 3
v -3.7 0.2 2.9
v -3.7 1.6 4.4
v -3.7 1.6 4.3
v -3.7 1.6 4.2
v -3.7 1.6 3
v -3.7 1.6 2.9
v -3.7 1.8 4.4
v -3.7 1.8 4.3
v -3.7 1.8 4.2
v -3.7 1.8 3
v -3.7 1.8 2.9
v -3.7 2.2 4.4
v -3.7 2.2 4.3
v -3.7 2.2 3
v -3.7 2.2 2.9
v -3.6 1.6 3.1
v -3.6 1.6 3
v -3.6 1.8 3.1
v -3.6 1.8 3
v -3.5 0.2 4.3
v -3.5 0.2 4.2
v -3.5 0.2 3.1
v -3.5 0.2 3
v -3.5 1.6 4.3
v -3.5 1.6 4.2
v -3.5 1.6 4.1
v -3.5 1.6 3.2
v -3.5 1.6 3.1
v -3.5 1.6 3
v -3.5 1.8 4.3
v -3.5 1.8 4.2
v -3.5 1.8 4.1
v -3.5 1.8 3.2
v -3.5 1.8 3.1
v -3.5 1.8 3
v -3.5 2.2 4.3
v -3.5 2.2 4.2
v -3.5 2.2 3.1
v -3.5 2.2 3
v -3.4 0.2 4.2
v -3.4 0.2 4.1
v -3.4 0.2 3.2
v -3.4 0.2 3.1
v -3.4 1.6 4.2
v -3.4 1.6 4.1
v -3.4 1.6 3.9
v -3.4 1.6 3.4
v -3.4 1.6 3.2
v -3.4 1.6 3.1
v -3.4 1.8 4.2
v -3.4 1.8 4.1
v -3.4 1.8 3.9
v -3.4 1.8 3.4
v -3.4 1.8 3.2
v -3.4 1.8 3.1
v -3.4 2.2 4.2
v -3.4 2.2 4.1
v -3.4 2.2 3.2
v -3.4 2.2 3.1
v -3.3 0.2 4.1
v -3.3 0.2 3.9
v -3.3 0.2 3.4
v -3.3 0.2 3.2
v -3.3 1.6 4.1
v -3.3 1.6 3.9
v -3.3 1.6 3.4
v -3.3 1.6 3.2
v -3.3 1.8 4.1
v -3.3 1.8 3.9
v -3.3 1.8 3.4
v -3.3 1.8 3.2
v -3.3 2.2 4.1
v -3.3 2.2 3.9
v -3.3 2.2 3.4
v -3.3 2.2 3.2
v -3.2 0.2 3.9
v -3.2 0.2 3.4
v -3.2 1.6 3.9
v -3.2 1.6 3.4
v -3.2 1.8 3.9
v -3.2 1.8 3.4
v -3.2 2.2 3.9
v -3.2 2.2 3.4
v -4.2 0.2 4.4
v -4.2 1.6 4.4
v -4.2 1.8 4.4
v -4.2 2.2 4.4
v -3.7 0.2 4.4
v -3.7 1.6 4.4
v -3.7 1.8 4.4
v -3.7 2.2 4.4
v -4.4 0.2 4.3
v -4.4 1.6 4.3
v -4.4 1.8 4.3
v -4.4 2.2 4.3
v -4.2 0.2 4.3
v -4.2 1.6 4.3
v -4.2 1.8 4.3
v -4.2 2.2 4.3
v -3.7 0.2 4.3
v -3.7 1.6 4.3
v -3.7 1.8 4.3
v -3.7 2.2 4.3
v -3.5 0.2 4.3
v -3.5 1.6 4.3
v -3.5 1.8 4.3
v -3.5 2.2 4.3
v -4.5 0.2 4.2
v -4.5 1.6 4.2
v -4.5 1.8 4.2
v -4.5 2.2 4.2
v -4.4 0.2 4.2
v -4.4 1.6 4.2
v -4.4 1.8 4.2
v -4.4 2.2 4.2
v -4.2 1.6 4.2
v -4.2 1.8 4.2
v -3.7 1.6 4.2
v -3.7 1.8 4.2
v -3.5 0.2 4.2
v -3.5 1.6 4.2
v -3.5 1.8 4.2
v -3.5 2.2 4.2
v -3.4 0.2 4.2
v -3.4 1.6 4.2
v -3.4 1.8 4.2
v -3.4 2.2 4.2
v -4.6 0.2 4.1
v -4.6 1.6 4.1
v -4.6 1.8 4.1
v -4.6 2.2 4.1
v -4.5 0.2 4.1
v -4.5 1.6 4.1
v -4.5 1.8 4.1
v -4.5 2.2 4.1
v -4.4 1.6 4.1
v -4.4 1.8 4.1
v -3.5 1.6 4.1
v -3.5 1.8 4.1
v -3.4 0.2 4.1
v -3.4 1.6 4.1
v -3.4 1.8 4.1
v -3.4 2.2 4.1
v -3.3 0.2 4.1
v -3.3 1.6 4.1
v -3.3 1.8 4.1
v -3.3 2.2 4.1
v -4.6 1.6 4
v -4.6 1.8 4
v -4.5 1.6 4
v -4.5 1.8 4
v -4.7 0.2 3.9
v -4.7 1.6 3.9
v -4.7 1.8 3.9
v -4.7 2.2 3.9
v -4.6 0.2 3.9
v -4.6 1.6 3.9
v -4.6 1.8 3.9
v -4.6 2.2 3.9
v -3.4 1.6 3.9
v -3.4 1.8 3.9
v -3.3 0.2 3.9
v -3.3 1.6 3.9
v -3.3 1.8 3.9
v -3.3 2.2 3.9
v -3.2 0.2 3.9
v -3.2 1.6 3.9
v -3.2 1.8 3.9
v -3.2 2.2 3.9
v -4.5 2.1 3.4
v -4.5 2.2 3.4
v -4.4 2.1 3.4
v -4.4 2.2 3.4
v -3.5 2.1 3.4
v -3.5 2.2 3.4
v -3.4 2.1 3.4
v -3.4 2.2 3.4
v -4.4 2.1 3.3
v -4.4 2.2 3.3
v -4.3 2.1 3.3
v -4.3 2.2 3.3
v -3.6 2.1 3.3
v -3.6 2.2 3.3
v -3.5 2.1 3.3
v -3.5 2.2 3.3
v -4.3 2.1 3.2
v -4.3 2.2 3.2
v -4.2 2.1 3.2
v -4.2 2.2 3.2
v -3.7 2.1 3.2
v -3.7 2.2 3.2
v -3.6 2.1 3.2
v -3.6 2.2 3.2
v -4.2 2.1 3.1
v -4.2 2.2 3.1
v -3.7 2.1 3.1
v -3.7 2.2 3.1
v -4.2 2.1 4.2
v -4.2 2.2 4.2
v -3.7 2.1 4.2
v -3.7 2.2 4.2
v -4.3 2.1 4.1
v -4.3 2.2 4.1
v -4.2 2.1 4.1
v -4.2 2.2 4.1
v -3.7 2.1 4.1
v -3.7 2.2 4.1
v -3.6 2.1 4.1
v -3.6 2.2 4.1
v -4.4 2.1 4
v -4.4 2.2 4
v -4.3 2.1 4
v -4.3 2.2 4
v -3.6 2.1 4
v -3.6 2.2 4
v -3.5 2.1 4
v -3.5 2.2 4
v -4.5 2.1 3.9
v -4.5 2.2 3.9
v -4.4 2.1 3.9
v -4.4 2.2 3.9
v -3.5 2.1 3.9
v -3.5 2.2 3.9
v -3.4 2.1 3.9
v -3.4 2.2 3.9
v -4.7 0.2 3.4
v -4.7 1.6 3.4
v -4.7 1.8 3.4
v -4.7 2.2 3.4
v -4.6 0.2 3.4
v -4.6 1.6 3.4
v -4.6 1.8 3.4
v -4.6 2.2 3.4
v -4.5 1.6 3.4
v -4.5 1.8 3.4
v -3.4 1.6 3.4
v -3.4 1.8 3.4
v -3.3 0.2 3.4
v -3.3 1.6 3.4
v -3.3 1.8 3.4
v -3.3 2.2 3.4
v -3.2 0.2 3.4
v -3.2 1.6 3.4
v -3.2 1.8 3.4
v -3.2 2.2 3.4
v -4.6 0.2 3.2
v -4.6 1.6 3.2
v -4.6 1.8 3.2
v -4.6 2.2 3.2
v -4.5 0.2 3.2
v -4.5 1.6 3.2
v -4.5 1.8 3.2
v -4.5 2.2 3.2
v -4.4 1.6 3.2
v -4.4 1.8 3.2
v -3.5 1.6 3.2
v -3.5 1.8 3.2
v -3.4 0.2 3.2
v -3.4 1.6 3.2
v -3.4 1.8 3.2
v -3.4 2.2 3.2
v -3.3 0.2 3.2
v -3.3 1.6 3.2
v -3.3 1.8 3.2
v -3.3 2.2 3.2
v -4.5 0.2 3.1
v -4.5 1.6 3.1
v -4.5 1.8 3.1
v -4.5 2.2 3.1
v -4.4 0.2 3.1
v -4.4 1.6 3.1
v -4.4 1.8 3.1
v -4.4 2.2 3.1
v -4.2 1.6 3.1
v -4.2 1.8 3.1
v -3.6 1.6 3.1
v -3.6 1.8 3.1
v -3.5 0.2 3.1
v -3.5 1.6 3.1
v -3.5 1.8 3.1
v -3.5 2.2 3.1
v -3.4 0.2 3.1
v -3.4 1.6 3.1
v -3.4 1.8 3.1
v -3.4 2.2 3.1
v -4.4 0.2 3
v -4.4 1.6 3
v -4.4 1.8 3
v -4.4 2.2 3
v -4.2 0.2 3
v -4.2 1.6 3
v -4.2 1.8 3
v -4.2 2.2 3
v -3.7 0.2 3
v -3.7 1.6 3
v -3.7 1.8 3
v -3.7 2.2 3
v -3.6 1.6 3
v -3.6 1.8 3
v -3.5 0.2 3
v -3.5 1.6 3
v -3.5 1.8 3
v -3.5 2.2 3
v -4.2 0.2 2.9
v -4.2 1.6 2.9
v -4.2 1.8 2.9
v -4.2 2.2 2.9
v -3.7 0.2 2.9
v -3.7 1.6 2.9
v -3.7 1.8 2.9
v -3.7 2.2 2.9
v -4.2 0.2 4.4
v -3.7 0.2 4.4
v -4.4 0.2 4.3
v -4.2 0.2 4.3
v -3.7 0.2 4.3
v -3.5 0.2 4.3
v -4.5 0.2 4.2
v -4.4 0.2 4.2
v -3.5 0.2 4.2
v -3.4 0.2 4.2
v -4.6 0.2 4.1
v -4.5 0.2 4.1
v -3.4 0.2 4.1
v -3.3 0.2 4.1
v -4.7 0.2 3.9
v -4.6 0.2 3.9
v -3.3 0.2 3.9
v -3.2 0.2 3.9
v -4.7 0.2 3.4
v -4.6 0.2 3.4
v -3.3 0.2 3.4
v -3.2 0.2 3.4
v -4.6 0.2 3.2
v -4.5 0.2 3.2
v -3.4 0.2 3.2
v -3.3 0.2 3.2
v -4.5 0.2 3.1
v -4.4 0.2 3.1
v -3.5 0.2 3.1
v -3.4 0.2 3.1
v -4.4 0.2 3
v -4.2 0.2 3
v -3.7 0.2 3
v -3.5 0.2 3
v -4.2 0.2 2.9
v -3.7 0.2 2.9
v -4.2 1.8 4.4
v -3.7 1.8 4.4
v -4.4 1.8 4.3
v -4.2 1.8 4.3
v -3.7 1.8 4.3
v -3.5 1.8 4.3
v -4.5 1.8 4.2
v -4.4 1.8 4.2
v -4.2 1.8 4.2
v -3.7 1.8 4.2
v -3.5 1.8 4.2
v -3.4 1.8 4.2
v -4.6 1.8 4.1
v -4.5 1.8 4.1
v -4.4 1.8 4.1
v -3.5 1.8 4.1
v -3.4 1.8 4.1
v -3.3 1.8 4.1
v -4.6 1.8 4
v -4.5 1.8 4
v -4.7 1.8 3.9
v -4.6 1.8 3.9
v -3.4 1.8 3.9
v -3.3 1.8 3.9
v -3.2 1.8 3.9
v -4.7 1.8 3.4
v -4.6 1.8 3.4
v -4.5 1.8 3.4
v -3.4 1.8 3.4
v -3.3 1.8 3.4
v -3.2 1.8 3.4
v -4.6 1.8 3.2
v -4.5 1.8 3.2
v -4.4 1.8 3.2
v -3.5 1.8 3.2
v -3.4 1.8 3.2
v -3.3 1.8 3.2
v -4.5 1.8 3.1
v -4.4 1.8 3.1
v -4.2 1.8 3.1
v -3.6 1.8 3.1
v -3.5 1.8 3.1
v -3.4 1.8 3.1
v -4.4 1.8 3
v -4.2 1.8 3
v -3.7 1.8 3
v -3.6 1.8 3
v -3.5 1.8 3
v -4.2 1.8 2.9
v -3.7 1.8 2.9
v -4.2 1.6 4.4
v -3.7 1.6 4.4
v -4.4 1.6 4.3
v -4.2 1.6 4.3
v -3.7 1.6 4.3
v -3.5 1.6 4.3
v -4.5 1.6 4.2
v -4.4 1.6 4.2
v -4.2 1.6 4.2
v -3.7 1.6 4.2
v -3.5 1.6 4.2
v -3.4 1.6 4.2
v -4.6 1.6 4.1
v -4.5 1.6 4.1
v -4.4 1.6 4.1
v -3.5 1.6 4.1
v -3.4 1.6 4.1
v -3.3 1.6 4.1
v -4.6 1.6 4
v -4.5 1.6 4
v -4.7 1.6 3.9
v -4.6 1.6 3.9
v -3.4 1.6 3.9
v -3.3 1.6 3.9
v -3.2 1.6 3.9
v -4.7 1.6 3.4
v -4.6 1.6 3.4
v -4.5 1.6 3.4
v -3.4 1.6 3.4
v -3.3 1.6 3.4
v -3.2 1.6 3.4
v -4.6 1.6 3.2
v -4.5 1.6 3.2
v -4.4 1.6 3.2
v -3.5 1.6 3.2
v -3.4 1.6 3.2
v -3.3 1.6 3.2
v -4.5 1.6 3.1
v -4.4 1.6 3.1
v -4.2 1.6 3.1
v -3.6 1.6 3.1
v -3.5 1.6 3.1
v -3.4 1.6 3.1
v -4.4 1.6 3
v -4.2 1.6 3
v -3.7 1.6 3
v -3.6 1.6 3
v -3.5 1.6 3
v -4.2 1.6 2.9
v -3.7 1.6 2.9
v -4.2 2.1 4.2
v -3.7 2.1 4.2
v -4.3 2.1 4.1
v -4.2 2.1 4.1
v -3.7 2.1 4.1
v -3.6 2.1 4.1
v -4.4 2.1 4
v -4.3 2.1 4
v -3.6 2.1 4
v -3.5 2.1 4
v -4.5 2.1 3.9
v -4.4 2.1 3.9
v -3.5 2.1 3.9
v -3.4 2.1 3.9
v -4.5 2.1 3.4
v -4.4 2.1 3.4
v -3.5 2.1 3.4
v -3.4 2.1 3.4
v -4.4 2.1 3.3
v -4.3 2.1 3.3
v -3.6 2.1 3.3
v -3.5 2.1 3.3
v -4.3 2.1 3.2
v -4.2 2.1 3.2
v -3.7 2.1 3.2
v -3.6 2.1 3.2
v -4.2 2.1 3.1
v -3.7 2.1 3.1
v -4.2 2.2 4.4
v -3.7 2.2 4.4
v -4.4 2.2 4.3
v -4.2 2.2 4.3
v -3.7 2.2 4.3
v -3.5 2.2 4.3
v -4.5 2.2 4.2
v -4.4 2.2 4.2
v -4.2 2.2 4.2
v -3.7 2.2 4.2
v -3.5 2.2 4.2
v -3.4 2.2 4.2
v -4.6 2.2 4.1
v -4.5 2.2 4.1
v -4.3 2.2 4.1
v -4.2 2.2 4.1
v -3.7 2.2 4.1
v -3.6 2.2 4.1
v -3.4 2.2 4.1
v -3.3 2.2 4.1
v -4.4 2.2 4
v -4.3 2.2 4
v -3.6 2.2 4
v -3.5 2.2 4
v -4.7 2.2 3.9
v -4.6 2.2 3.9
v -4.5 2.2 3.9
v -4.4 2.2 3.9
v -3.5 2.2 3.9
v -3.4 2.2 3.9
v -3.3 2.2 3.9
v -3.2 2.2 3.9
v -4.7 2.2 3.4
v -4.6 2.2 3.4
v -4.5 2.2 3.4
v -4.4 2.2 3.4
v -3.5 2.2 3.4
v -3.4 2.2 3.4
v -3.3 2.2 3.4
v -3.2 2.2 3.4
v -4.4 2.2 3.3
v -4.3 2.2 3.3
v -3.6 2.2 3.3
v -3.5 2.2 3.3
v -4.6 2.2 3.2
v -4.5 2.2 3.2
v -4.3 2.2 3.2
v -4.2 2.2 3.2
v -3.7 2.2 3.2
v -3.6 2.2 3.2
v -3.4 2.2 3.2
v -3.3 2.2 3.2
v -4.5 2.2 3.1
v -4.4 2.2 3.1
v -4.2 2.2 3.1
v -3.7 2.2 3.1
v -3.5 2.2 3.1
v -3.4 2.2 3.1
v -4.4 2.2 3
v -4.2 2.2 3
v -3.7 2.2 3
v -3.5 2.2 3
v -4.2 2.2 2.9
v -3.7 2.2 2.9

# faces
f 3/1/1 2/1/1 1/1/1
f 4/1/1 2/1/1 3/1/1
f 7/1/1 6/1/1 5/1/1
f 8/1/1 6/1/1 7/1/1
f 13/1/1 10/1/1 9/1/1
f 14/1/1 10/1/1 13/1/1
f 15/1/1 10/1/1 14/1/1
f 16/1/1 12/1/1 11/1/1
f 17/1/1 12/1/1 16/1/1
f 19/2/1 15/2/1 14/2/1
f 19/2/1 16/2/1 15/2/1
f 20/2/1 16/2/1 19/2/1
f 21/2/1 16/2/1 20/2/1
f 23/1/1 19/1/1 18/1/1
f 23/1/1 20/1/1 19/1/1
f 24/1/1 20/1/1 23/1/1
f 25/1/1 22/1/1 21/1/1
f 26/1/1 22/1/1 25/1/1
f 31/1/1 28/1/1 27/1/1
f 32/1/1 28/1/1 31/1/1
f 35/1/1 30/1/1 29/1/1
f 36/1/1 30/1/1 35/1/1
f 38/2/1 33/2/1 32/2/1
f 39/2/1 33/2/1 38/2/1
f 40/2/1 35/2/1 34/2/1
f 41/2/1 35/2/1 40/2/1
f 43/1/1 38/1/1 37/1/1
f 44/1/1 38/1/1 43/1/1
f 45/1/1 42/1/1 41/1/1
f 46/1/1 42/1/1 45/1/1
f 51/1/1 48/1/1 47/1/1
f 52/1/1 48/1/1 51/1/1
f 55/1/1 50/1/1 49/1/1
f 56/1/1 50/1/1 55/1/1
f 58/2/1 53/2/1 52/2/1
f 59/2/1 53/2/1 58/2/1
f 60/2/1 55/2/1 54/2/1
f 61/2/1 55/2/1 60/2/1
f 63/1/1 58/1/1 57/1/1
f 64/1/1 58/1/1 63/1/1
f 65/1/1 62/1/1 61/1/1
f 66/1/1 62/1/1 65/1/1
f 71/1/1 68/1/1 67/1/1
f 72/1/1 68/1/1 71/1/1
f 75/1/1 70/1/1 69/1/1
f 76/1/1 70/1/1 75/1/1
f 78/2/1 73/2/1 72/2/1
f 79/2/1 73/2/1 78/2/1
f 80/2/1 75/2/1 74/2/1
f 81/2/1 75/2/1 80/2/1
f 83/1/1 78/1/1 77/1/1
f 84/1/1 78/1/1 83/1/1
f 85/1/1 82/1/1 81/1/1
f 86/1/1 82/1/1 85/1/1
f 91/1/1 88/1/1 87/1/1
f 92/1/1 88/1/1 91/1/1
f 93/1/1 90/1/1 89/1/1
f 94/1/1 90/1/1 93/1/1
f 99/1/1 96/1/1 95/1/1
f 100/1/1 96/1/1 99/1/1
f 101/1/1 98/1/1 97/1/1
f 102/1/1 98/1/1 101/1/1
f 107/1/1 104/1/1 103/1/1
f 108/1/1 104/1/1 107/1/1
f 109/1/1 106/1/1 105/1/1
f 110/1/1 106/1/1 109/1/1
f 113/1/1 112/1/1 111/1/1
f 114/1/1 112/1/1 113/1/1
f 115/1/2 116/1/2 117/1/2
f 117/1/2 116/1/2 118/1/2
f 119/1/2 120/1/2 123/1/2
f 123/1/2 120/1/2 124/1/2
f 121/1/2 122/1/2 125/1/2
f 125/1/2 122/1/2 126/1/2
f 127/1/2 128/1/2 131/1/2
f 131/1/2 128/1/2 132/1/2
f 129/1/2 130/1/2 133/1/2
f 133/1/2 130/1/2 134/1/2
f 135/1/2 136/1/2 139/1/2
f 139/1/2 136/1/2 140/1/2
f 137/1/2 138/1/2 141/1/2
f 141/1/2 138/1/2 142/1/2
f 143/1/2 144/1/2 147/1/2
f 147/1/2 144/1/2 148/1/2
f 145/1/2 146/1/2 150/1/2
f 150/1/2 146/1/2 151/1/2
f 148/2/2 149/2/2 153/2/2
f 153/2/2 149/2/2 154/2/2
f 152/1/2 153/1/2 157/1/2
f 157/1/2 153/1/2 158/1/2
f 155/1/2 156/1/2 159/1/2
f 159/1/2 156/1/2 160/1/2
f 161/2/2 162/2/2 163/2/2
f 163/2/2 162/2/2 164/2/2
f 165/1/2 166/1/2 169/1/2
f 169/1/2 166/1/2 170/1/2
f 167/1/2 168/1/2 173/1/2
f 173/1/2 168/1/2 174/1/2
f 170/2/2 171/2/2 176/2/2
f 176/2/2 171/2/2 177/2/2
f 172/2/2 173/2/2 178/2/2
f 178/2/2 173/2/2 179/2/2
f 175/1/2 176/1/2 181/1/2
f 181/1/2 176/1/2 182/1/2
f 179/1/2 180/1/2 183/1/2
f 183/1/2 180/1/2 184/1/2
f 185/1/2 186/1/2 189/1/2
f 189/1/2 186/1/2 190/1/2
f 187/1/2 188/1/2 193/1/2
f 193/1/2 188/1/2 194/1/2
f 190/2/2 191/2/2 196/2/2
f 196/2/2 191/2/2 197/2/2
f 192/2/2 193/2/2 198/2/2
f 198/2/2 193/2/2 199/2/2
f 195/1/2 196/1/2 201/1/2
f 201/1/2 196/1/2 202/1/2
f 199/1/2 200/1/2 203/1/2
f 203/1/2 200/1/2 204/1/2
f 205/1/2 206/1/2 209/1/2
f 209/1/2 206/1/2 210/1/2
f 207/1/2 208/1/2 211/1/2
f 211/1/2 208/1/2 212/1/2
f 210/2/2 211/2/2 214/2/2
f 214/2/2 211/2/2 215/2/2
f 213/1/2 214/1/2 217/1/2
f 217/1/2 214/1/2 218/1/2
f 215/1/2 216/1/2 219/1/2
f 219/1/2 216/1/2 220/1/2
f 221/1/2 222/1/2 223/1/2
f 223/1/2 222/1/2 224/1/2
f 225/1/2 226/1/2 227/1/2
f 227/1/2 226/1/2 228/1/2
f 233/1/3 230/1/3 229/1/3
f 234/1/3 230/1/3 233/1/3
f 235/1/3 232/1/3 231/1/3
f 236/1/3 232/1/3 235/1/3
f 241/1/3 238/1/3 237/1/3
f 242/1/3 238/1/3 241/1/3
f 243/1/3 240/1/3 239/1/3
f 244/1/3 240/1/3 243/1/3
f 246/2/3 243/2/3 242/2/3
f 247/2/3 243/2/3 246/2/3
f 249/1/3 246/1/3 245/1/3
f 250/1/3 246/1/3 249/1/3
f 251/1/3 248/1/3 247/1/3
f 252/1/3 248/1/3 251/1/3
f 257/1/3 254/1/3 253/1/3
f 258/1/3 254/1/3 257/1/3
f 259/1/3 256/1/3 255/1/3
f 260/1/3 256/1/3 259/1/3
f 261/2/3 259/2/3 258/2/3
f 262/2/3 259/2/3 261/2/3
f 266/2/3 264/2/3 263/2/3
f 267/2/3 264/2/3 266/2/3
f 269/1/3 266/1/3 265/1/3
f 270/1/3 266/1/3 269/1/3
f 271/1/3 268/1/3 267/1/3
f 272/1/3 268/1/3 271/1/3
f 277/1/3 274/1/3 273/1/3
f 278/1/3 274/1/3 277/1/3
f 279/1/3 276/1/3 275/1/3
f 280/1/3 276/1/3 279/1/3
f 281/2/3 279/2/3 278/2/3
f 282/2/3 279/2/3 281/2/3
f 286/2/3 284/2/3 283/2/3
f 287/2/3 284/2/3 286/2/3
f 289/1/3 286/1/3 285/1/3
f 290/1/3 286/1/3 289/1/3
f 291/1/3 288/1/3 287/1/3
f 292/1/3 288/1/3 291/1/3
f 295/2/3 294/2/3 293/2/3
f 296/2/3 294/2/3 295/2/3
f 301/1/3 298/1/3 297/1/3
f 302/1/3 298/1/3 301/1/3
f 303/1/3 300/1/3 299/1/3
f 304/1/3 300/1/3 303/1/3
f 308/2/3 306/2/3 305/2/3
f 309/2/3 306/2/3 308/2/3
f 311/1/3 308/1/3 307/1/3
f 312/1/3 308/1/3 311/1/3
f 313/1/3 310/1/3 309/1/3
f 314/1/3 310/1/3 313/1/3
f 317/1/3 316/1/3 315/1/3
f 318/1/3 316/1/3 317/1/3
f 321/1/3 320/1/3 319/1/3
f 322/1/3 320/1/3 321/1/3
f 325/1/3 324/1/3 323/1/3
f 326/1/3 324/1/3 325/1/3
f 329/1/3 328/1/3 327/1/3
f 330/1/3 328/1/3 329/1/3
f 333/1/3 332/1/3 331/1/3
f 334/1/3 332/1/3 333/1/3
f 337/1/3 336/1/3 335/1/3
f 338/1/3 336/1/3 337/1/3
f 341/1/3 340/1/3 339/1/3
f 342/1/3 340/1/3 341/1/3
f 343/1/4 344/1/4 345/1/4
f 345/1/4 344/1/4 346/1/4
f 347/1/4 348/1/4 349/1/4
f 349/1/4 348/1/4 350/1/4
f 351/1/4 352/1/4 353/1/4
f 353/1/4 352/1/4 354/1/4
f 355/1/4 356/1/4 357/1/4
f 357/1/4 356/1/4 358/1/4
f 359/1/4 360/1/4 361/1/4
f 361/1/4 360/1/4 362/1/4
f 363/1/4 364/1/4 365/1/4
f 365/1/4 364/1/4 366/1/4
f 367/1/4 368/1/4 369/1/4
f 369/1/4 368/1/4 370/1/4
f 371/1/4 372/1/4 375/1/4
f 375/1/4 372/1/4 376/1/4
f 373/1/4 374/1/4 377/1/4
f 377/1/4 374/1/4 378/1/4
f 376/2/4 377/2/4 379/2/4
f 379/2/4 377/2/4 380/2/4
f 381/2/4 382/2/4 384/2/4
f 384/2/4 382/2/4 385/2/4
f 383/1/4 384/1/4 387/1/4
f 387/1/4 384/1/4 388/1/4
f 385/1/4 386/1/4 389/1/4
f 389/1/4 386/1/4 390/1/4
f 391/1/4 392/1/4 395/1/4
f 395/1/4 392/1/4 396/1/4
f 393/1/4 394/1/4 397/1/4
f 397/1/4 394/1/4 398/1/4
f 396/2/4 397/2/4 399/2/4
f 399/2/4 397/2/4 400/2/4
f 401/2/4 402/2/4 404/2/4
f 404/2/4 402/2/4 405/2/4
f 403/1/4 404/1/4 407/1/4
f 407/1/4 404/1/4 408/1/4
f 405/1/4 406/1/4 409/1/4
f 409/1/4 406/1/4 410/1/4
f 411/1/4 412/1/4 415/1/4
f 415/1/4 412/1/4 416/1/4
f 413/1/4 414/1/4 417/1/4
f 417/1/4 414/1/4 418/1/4
f 416/2/4 417/2/4 419/2/4
f 419/2/4 417/2/4 420/2/4
f 421/2/4 422/2/4 424/2/4
f 424/2/4 422/2/4 425/2/4
f 423/1/4 424/1/4 427/1/4
f 427/1/4 424/1/4 428/1/4
f 425/1/4 426/1/4 429/1/4
f 429/1/4 426/1/4 430/1/4
f 431/1/4 432/1/4 435/1/4
f 435/1/4 432/1/4 436/1/4
f 433/1/4 434/1/4 437/1/4
f 437/1/4 434/1/4 438/1/4
f 436/2/4 437/2/4 440/2/4
f 440/2/4 437/2/4 441/2/4
f 439/1/4 440/1/4 443/1/4
f 440/2/4 441/2/4 443/2/4
f 441/1/4 442/1/4 444/1/4
f 443/2/4 441/2/4 444/2/4
f 439/1/4 443/1/4 445/1/4
f 445/1/4 443/1/4 446/1/4
f 444/1/4 442/1/4 447/1/4
f 447/1/4 442/1/4 448/1/4
f 449/1/4 450/1/4 453/1/4
f 453/1/4 450/1/4 454/1/4
f 451/1/4 452/1/4 455/1/4
f 455/1/4 452/1/4 456/1/4
f 460/1/5 458/1/5 457/1/5
f 461/1/5 458/1/5 460/1/5
f 464/1/5 460/1/5 459/1/5
f 464/1/5 462/1/5 461/1/5
f 464/1/5 461/1/5 460/1/5
f 465/1/5 462/1/5 464/1/5
f 468/1/5 464/1/5 463/1/5
f 468/1/5 466/1/5 465/1/5
f 468/1/5 465/1/5 464/1/5
f 469/1/5 466/1/5 468/1/5
f 472/1/5 468/1/5 467/1/5
f 472/1/5 470/1/5 469/1/5
f 472/1/5 469/1/5 468/1/5
f 473/1/5 470/1/5 472/1/5
f 475/1/5 472/1/5 471/1/5
f 475/1/5 474/1/5 473/1/5
f 475/1/5 473/1/5 472/1/5
f 476/1/5 474/1/5 475/1/5
f 477/1/5 474/1/5 476/1/5
f 478/1/5 474/1/5 477/1/5
f 479/1/5 477/1/5 476/1/5
f 480/1/5 477/1/5 479/1/5
f 481/1/5 477/1/5 480/1/5
f 482/1/5 477/1/5 481/1/5
f 483/1/5 481/1/5 480/1/5
f 484/1/5 481/1/5 483/1/5
f 485/1/5 481/1/5 484/1/5
f 486/1/5 481/1/5 485/1/5
f 487/1/5 485/1/5 484/1/5
f 488/1/5 485/1/5 487/1/5
f 489/1/5 485/1/5 488/1/5
f 490/1/5 485/1/5 489/1/5
f 491/1/5 489/1/5 488/1/5
f 492/1/5 489/1/5 491/1/5
f 496/1/5 494/1/5 493/1/5
f 497/1/5 494/1/5 496/1/5
f 500/1/5 496/1/5 495/1/5
f 501/1/5 496/1/5 500/1/5
f 502/1/5 498/1/5 497/1/5
f 503/1/5 498/1/5 502/1/5
f 506/1/5 500/1/5 499/1/5
f 507/1/5 500/1/5 506/1/5
f 508/1/5 504/1/5 503/1/5
f 509/1/5 504/1/5 508/1/5
f 511/1/5 506/1/5 505/1/5
f 512/1/5 506/1/5 511/1/5
f 515/1/5 510/1/5 509/1/5
f 516/1/5 510/1/5 515/1/5
f 518/1/5 514/1/5 513/1/5
f 519/1/5 514/1/5 518/1/5
f 522/1/5 517/1/5 516/1/5
f 523/1/5 517/1/5 522/1/5
f 524/1/5 520/1/5 519/1/5
f 525/1/5 520/1/5 524/1/5
f 528/1/5 522/1/5 521/1/5
f 529/1/5 522/1/5 528/1/5
f 530/1/5 526/1/5 525/1/5
f 531/1/5 526/1/5 530/1/5
f 534/1/5 528/1/5 527/1/5
f 535/1/5 528/1/5 534/1/5
f 536/1/5 532/1/5 531/1/5
f 537/1/5 532/1/5 536/1/5
f 539/1/5 534/1/5 533/1/5
f 540/1/5 534/1/5 539/1/5
f 541/1/5 538/1/5 537/1/5
f 542/1/5 538/1/5 541/1/5
f 543/1/6 544/1/6 546/1/6
f 546/1/6 544/1/6 547/1/6
f 545/1/6 546/1/6 550/1/6
f 550/1/6 546/1/6 551/1/6
f 547/1/6 548/1/6 552/1/6
f 552/1/6 548/1/6 553/1/6
f 549/1/6 550/1/6 556/1/6
f 556/1/6 550/1/6 557/1/6
f 553/1/6 554/1/6 558/1/6
f 558/1/6 554/1/6 559/1/6
f 555/1/6 556/1/6 561/1/6
f 561/1/6 556/1/6 562/1/6
f 559/1/6 560/1/6 565/1/6
f 565/1/6 560/1/6 566/1/6
f 563/1/6 564/1/6 568/1/6
f 568/1/6 564/1/6 569/1/6
f 566/1/6 567/1/6 572/1/6
f 572/1/6 567/1/6 573/1/6
f 569/1/6 570/1/6 574/1/6
f 574/1/6 570/1/6 575/1/6
f 571/1/6 572/1/6 578/1/6
f 578/1/6 572/1/6 579/1/6
f 575/1/6 576/1/6 580/1/6
f 580/1/6 576/1/6 581/1/6
f 577/1/6 578/1/6 584/1/6
f 584/1/6 578/1/6 585/1/6
f 581/1/6 582/1/6 586/1/6
f 586/1/6 582/1/6 587/1/6
f 583/1/6 584/1/6 589/1/6
f 589/1/6 584/1/6 590/1/6
f 587/1/6 588/1/6 591/1/6
f 591/1/6 588/1/6 592/1/6
f 593/2/6 594/2/6 596/2/6
f 596/2/6 594/2/6 597/2/6
f 595/2/6 596/2/6 600/2/6
f 597/2/6 598/2/6 600/2/6
f 596/2/6 597/2/6 600/2/6
f 600/2/6 598/2/6 601/2/6
f 599/2/6 600/2/6 604/2/6
f 601/2/6 602/2/6 604/2/6
f 600/2/6 601/2/6 604/2/6
f 604/2/6 602/2/6 605/2/6
f 603/2/6 604/2/6 607/2/6
f 605/2/6 606/2/6 607/2/6
f 604/2/6 605/2/6 607/2/6
f 607/2/6 606/2/6 608/2/6
f 608/2/6 606/2/6 609/2/6
f 609/2/6 606/2/6 610/2/6
f 608/2/6 609/2/6 611/2/6
f 611/2/6 609/2/6 612/2/6
f 612/2/6 609/2/6 613/2/6
f 613/2/6 609/2/6 614/2/6
f 612/2/6 613/2/6 615/2/6
f 615/2/6 613/2/6 616/2/6
f 616/2/6 613/2/6 617/2/6
f 617/2/6 613/2/6 618/2/6
f 616/2/6 617/2/6 619/2/6
f 619/2/6 617/2/6 620/2/6
f 621/1/6 622/1/6 624/1/6
f 624/1/6 622/1/6 625/1/6
f 623/1/6 624/1/6 628/1/6
f 625/1/6 626/1/6 628/1/6
f 624/1/6 625/1/6 628/1/6
f 628/1/6 626/1/6 629/1/6
f 629/1/6 626/1/6 630/1/6
f 630/1/6 626/1/6 631/1/6
f 627/1/6 628/1/6 634/1/6
f 628/1/6 629/1/6 634/1/6
f 634/1/6 629/1/6 635/1/6
f 635/1/6 629/1/6 636/1/6
f 630/1/6 631/1/6 637/1/6
f 631/1/6 632/1/6 637/1/6
f 637/1/6 632/1/6 638/1/6
f 638/1/6 632/1/6 639/1/6
f 634/1/6 635/1/6 641/1/6
f 633/1/6 634/1/6 641/1/6
f 641/1/6 635/1/6 642/1/6
f 639/1/6 640/1/6 643/1/6
f 638/1/6 639/1/6 643/1/6
f 643/1/6 640/1/6 644/1/6
f 633/1/6 641/1/6 646/1/6
f 646/1/6 641/1/6 647/1/6
f 647/1/6 641/1/6 648/1/6
f 644/1/6 640/1/6 649/1/6
f 649/1/6 640/1/6 650/1/6
f 650/1/6 640/1/6 651/1/6
f 645/1/6 646/1/6 653/1/6
f 646/1/6 647/1/6 653/1/6
f 653/1/6 647/1/6 654/1/6
f 654/1/6 647/1/6 655/1/6
f 651/1/6 652/1/6 658/1/6
f 650/1/6 651/1/6 658/1/6
f 658/1/6 652/1/6 659/1/6
f 659/1/6 652/1/6 660/1/6
f 655/1/6 656/1/6 661/1/6
f 654/1/6 655/1/6 661/1/6
f 658/1/6 659/1/6 664/1/6
f 657/1/6 658/1/6 664/1/6
f 661/1/6 662/1/6 665/1/6
f 654/1/6 661/1/6 665/1/6
f 665/1/6 662/1/6 666/1/6
f 666/1/6 662/1/6 667/1/6
f 663/1/6 664/1/6 670/1/6
f 664/1/6 659/1/6 671/1/6
f 670/1/6 664/1/6 671/1/6
f 671/1/6 659/1/6 672/1/6
f 667/1/6 668/1/6 673/1/6
f 666/1/6 667/1/6 673/1/6
f 673/1/6 668/1/6 674/1/6
f 674/1/6 668/1/6 675/1/6
f 669/1/6 670/1/6 676/1/6
f 670/1/6 671/1/6 676/1/6
f 676/1/6 671/1/6 677/1/6
f 677/1/6 671/1/6 678/1/6
f 674/1/6 675/1/6 679/1/6
f 676/1/6 677/1/6 679/1/6
f 675/1/6 676/1/6 679/1/6
f 679/1/6 677/1/6 680/1/6
f 680/1/6 677/1/6 681/1/6
f 681/1/6 677/1/6 682/1/6
f 680/1/6 681/1/6 683/1/6
f 683/1/6 681/1/6 684/1/6
