# MagicaVoxel @ Ephtracy

# group
o 

# material
mtllib ATMHouse-9.mtl
usemtl palette

# normals
vn 0 0 1
vn 0 0 -1
vn 1 0 0
vn -1 0 0
vn 0 -1 0
vn 0 1 0

# texcoords
vt 0.0722656 0.5
vt 0.154297 0.5
vt 0.970703 0.5

# verts
v -4.6 3.7 -0.4
v -4.7 3.7 -0.4
v -4.6 4.6 -0.4
v -4.7 4.6 -0.4
v -4.5 3.9 -0.5
v -4.6 3.9 -0.5
v -4.5 4.3 -0.5
v -4.6 4.3 -0.5
v -4.5 3.9 -0.9
v -4.6 3.9 -0.9
v -4.4 4 -0.9
v -4.5 4 -0.9
v -4.6 4 -0.9
v -4.4 4.2 -0.9
v -4.5 4.2 -0.9
v -4.6 4.2 -0.9
v -4.5 4.3 -0.9
v -4.6 4.3 -0.9
v -4.5 3.9 -0.8
v -4.6 3.9 -0.8
v -4.5 4 -0.8
v -4.6 4 -0.8
v -4.5 4.3 -0.8
v -4.6 4.3 -0.8
v -4.5 3.9 -1
v -4.6 3.9 -1
v -4.4 4 -1
v -4.5 4 -1
v -4.6 4 -1
v -4.4 4.2 -1
v -4.5 4.2 -1
v -4.6 4.2 -1
v -4.5 4.3 -1
v -4.6 4.3 -1
v -4.6 3.7 -1.1
v -4.7 3.7 -1.1
v -4.6 4.6 -1.1
v -4.7 4.6 -1.1
v -4.4 4 -0.9
v -4.4 4.2 -0.9
v -4.4 4 -1
v -4.4 4.2 -1
v -4.5 3.9 -0.5
v -4.5 4.3 -0.5
v -4.5 3.9 -0.7
v -4.5 4 -0.7
v -4.5 3.9 -0.8
v -4.5 4 -0.8
v -4.5 4.3 -0.8
v -4.5 3.9 -0.9
v -4.5 4 -0.9
v -4.5 4.2 -0.9
v -4.5 4.3 -0.9
v -4.5 3.9 -1
v -4.5 4 -1
v -4.5 4.2 -1
v -4.5 4.3 -1
v -4.6 3.7 -0.4
v -4.6 4.6 -0.4
v -4.6 3.9 -0.5
v -4.6 4.3 -0.5
v -4.6 3.9 -0.7
v -4.6 3.9 -0.8
v -4.6 4 -0.8
v -4.6 4.3 -0.8
v -4.6 3.9 -0.9
v -4.6 4 -0.9
v -4.6 4.2 -0.9
v -4.6 4.3 -0.9
v -4.6 3.9 -1
v -4.6 4 -1
v -4.6 4.2 -1
v -4.6 4.3 -1
v -4.6 3.7 -1.1
v -4.6 4.6 -1.1
v -4.5 4 -0.9
v -4.5 4.2 -0.9
v -4.5 4 -1
v -4.5 4.2 -1
v -4.7 3.7 -0.4
v -4.7 4.6 -0.4
v -4.7 3.9 -0.5
v -4.7 4.3 -0.5
v -4.7 3.9 -0.8
v -4.7 4.3 -0.8
v -4.7 3.9 -0.9
v -4.7 4 -0.9
v -4.7 4.2 -0.9
v -4.7 4.3 -0.9
v -4.7 3.9 -1
v -4.7 4 -1
v -4.7 4.2 -1
v -4.7 4.3 -1
v -4.7 3.7 -1.1
v -4.7 4.6 -1.1
v -4.6 3.7 -0.4
v -4.6 3.7 -1.1
v -4.7 3.7 -0.4
v -4.7 3.7 -1.1
v -4.5 3.9 -0.5
v -4.5 3.9 -0.7
v -4.5 3.9 -0.8
v -4.5 3.9 -0.9
v -4.5 3.9 -1
v -4.6 3.9 -0.5
v -4.6 3.9 -0.7
v -4.6 3.9 -0.8
v -4.6 3.9 -0.9
v -4.6 3.9 -1
v -4.4 4 -0.9
v -4.4 4 -1
v -4.5 4 -0.9
v -4.5 4 -1
v -4.5 4.2 -0.9
v -4.5 4.2 -1
v -4.6 4.2 -0.9
v -4.6 4.2 -1
v -4.5 4 -0.9
v -4.5 4 -1
v -4.6 4 -0.9
v -4.6 4 -1
v -4.4 4.2 -0.9
v -4.4 4.2 -1
v -4.5 4.2 -0.9
v -4.5 4.2 -1
v -4.5 4.3 -0.5
v -4.5 4.3 -0.8
v -4.5 4.3 -0.9
v -4.5 4.3 -1
v -4.6 4.3 -0.5
v -4.6 4.3 -0.8
v -4.6 4.3 -0.9
v -4.6 4.3 -1
v -4.6 4.6 -0.4
v -4.6 4.6 -1.1
v -4.7 4.6 -0.4
v -4.7 4.6 -1.1

# faces
f 3/1/1 2/1/1 1/1/1
f 4/1/1 2/1/1 3/1/1
f 7/3/1 6/3/1 5/3/1
f 8/3/1 6/3/1 7/3/1
f 12/3/1 10/3/1 9/3/1
f 13/3/1 10/3/1 12/3/1
f 14/3/1 12/3/1 11/3/1
f 15/3/1 12/3/1 14/3/1
f 17/3/1 16/3/1 15/3/1
f 18/3/1 16/3/1 17/3/1
f 19/2/2 20/2/2 21/2/2
f 21/2/2 20/2/2 22/2/2
f 21/3/2 22/3/2 23/3/2
f 23/3/2 22/3/2 24/3/2
f 25/3/2 26/3/2 28/3/2
f 28/3/2 26/3/2 29/3/2
f 27/3/2 28/3/2 30/3/2
f 30/3/2 28/3/2 31/3/2
f 31/3/2 32/3/2 33/3/2
f 33/3/2 32/3/2 34/3/2
f 35/1/2 36/1/2 37/1/2
f 37/1/2 36/1/2 38/1/2
f 41/3/3 40/3/3 39/3/3
f 42/3/3 40/3/3 41/3/3
f 45/3/3 44/3/3 43/3/3
f 46/3/3 44/3/3 45/3/3
f 47/2/3 46/2/3 45/2/3
f 48/3/3 44/3/3 46/3/3
f 48/2/3 46/2/3 47/2/3
f 49/3/3 44/3/3 48/3/3
f 54/3/3 51/3/3 50/3/3
f 55/3/3 51/3/3 54/3/3
f 56/3/3 53/3/3 52/3/3
f 57/3/3 53/3/3 56/3/3
f 60/1/3 59/1/3 58/1/3
f 61/1/3 59/1/3 60/1/3
f 62/1/3 60/1/3 58/1/3
f 63/1/3 62/1/3 58/1/3
f 65/1/3 59/1/3 61/1/3
f 66/1/3 64/1/3 63/1/3
f 66/1/3 65/1/3 64/1/3
f 66/1/3 63/1/3 58/1/3
f 67/1/3 65/1/3 66/1/3
f 68/1/3 65/1/3 67/1/3
f 69/1/3 59/1/3 65/1/3
f 69/1/3 65/1/3 68/1/3
f 70/1/3 66/1/3 58/1/3
f 71/1/3 68/1/3 67/1/3
f 72/1/3 68/1/3 71/1/3
f 73/1/3 59/1/3 69/1/3
f 74/1/3 70/1/3 58/1/3
f 74/1/3 73/1/3 72/1/3
f 74/1/3 72/1/3 71/1/3
f 74/1/3 71/1/3 70/1/3
f 75/1/3 59/1/3 73/1/3
f 75/1/3 73/1/3 74/1/3
f 76/3/4 77/3/4 78/3/4
f 78/3/4 77/3/4 79/3/4
f 80/1/4 81/1/4 82/1/4
f 82/1/4 81/1/4 83/1/4
f 80/1/4 82/1/4 84/1/4
f 82/3/4 83/3/4 84/3/4
f 83/1/4 81/1/4 85/1/4
f 84/3/4 83/3/4 85/3/4
f 80/1/4 84/1/4 86/1/4
f 84/1/4 85/1/4 86/1/4
f 86/1/4 85/1/4 87/1/4
f 87/1/4 85/1/4 88/1/4
f 85/1/4 81/1/4 89/1/4
f 88/1/4 85/1/4 89/1/4
f 80/1/4 86/1/4 90/1/4
f 86/3/4 87/3/4 90/3/4
f 87/1/4 88/1/4 91/1/4
f 90/3/4 87/3/4 91/3/4
f 88/3/4 89/3/4 92/3/4
f 91/1/4 88/1/4 92/1/4
f 89/1/4 81/1/4 93/1/4
f 92/3/4 89/3/4 93/3/4
f 80/1/4 90/1/4 94/1/4
f 91/1/4 92/1/4 94/1/4
f 92/1/4 93/1/4 94/1/4
f 90/1/4 91/1/4 94/1/4
f 93/1/4 81/1/4 95/1/4
f 94/1/4 93/1/4 95/1/4
f 98/1/5 97/1/5 96/1/5
f 99/1/5 97/1/5 98/1/5
f 105/3/5 101/3/5 100/3/5
f 106/2/5 102/2/5 101/2/5
f 106/3/5 101/3/5 105/3/5
f 107/2/5 102/2/5 106/2/5
f 108/3/5 104/3/5 103/3/5
f 109/3/5 104/3/5 108/3/5
f 112/3/5 111/3/5 110/3/5
f 113/3/5 111/3/5 112/3/5
f 116/3/5 115/3/5 114/3/5
f 117/3/5 115/3/5 116/3/5
f 118/3/6 119/3/6 120/3/6
f 120/3/6 119/3/6 121/3/6
f 122/3/6 123/3/6 124/3/6
f 124/3/6 123/3/6 125/3/6
f 126/3/6 127/3/6 130/3/6
f 130/3/6 127/3/6 131/3/6
f 128/3/6 129/3/6 132/3/6
f 132/3/6 129/3/6 133/3/6
f 134/1/6 135/1/6 136/1/6
f 136/1/6 135/1/6 137/1/6
