# MagicaVoxel @ Ephtracy

# group
o 

# material
mtllib ATMHouse-0.mtl
usemtl palette

# normals
vn 1 0 0
vn -1 0 0
vn 0 0 1
vn 0 0 -1
vn 0 1 0
vn 0 -1 0

# texcoords
vt 0.0683594 0.5
vt 0.0722656 0.5
vt 0.126953 0.5

# verts
v 4.6 7.5 -4.2
v 4.6 7.5 -4.5
v 4.6 7.3 -4.2
v 4.6 7.3 -4.5
v 4.5 7.5 -4.1
v 4.5 7.5 -4.2
v 4.5 7.5 -4.5
v 4.5 7.5 -4.6
v 4.5 7.3 -4.1
v 4.5 7.3 -4.2
v 4.5 7.3 -4.5
v 4.5 7.3 -4.6
v 4.5 7.2 -4.2
v 4.5 7.2 -4.5
v 4.2 7.5 -4.1
v 4.2 7.5 -4.2
v 4.2 7.5 -4.5
v 4.2 7.5 -4.6
v 4.2 7.3 -4.1
v 4.2 7.3 -4.2
v 4.2 7.3 -4.5
v 4.2 7.3 -4.6
v 4.2 7.2 -4.2
v 4.2 7.2 -4.5
v 4.1 7.5 -4.2
v 4.1 7.5 -4.5
v 4.1 7.3 -4.2
v 4.1 7.3 -4.5
v 4.5 7.5 -4.1
v 4.5 7.3 -4.1
v 4.2 7.5 -4.1
v 4.2 7.3 -4.1
v 4.6 7.5 -4.2
v 4.6 7.3 -4.2
v 4.5 7.5 -4.2
v 4.5 7.3 -4.2
v 4.5 7.2 -4.2
v 4.2 7.5 -4.2
v 4.2 7.3 -4.2
v 4.2 7.2 -4.2
v 4.1 7.5 -4.2
v 4.1 7.3 -4.2
v 4.6 7.5 -4.5
v 4.6 7.3 -4.5
v 4.5 7.5 -4.5
v 4.5 7.3 -4.5
v 4.5 7.2 -4.5
v 4.2 7.5 -4.5
v 4.2 7.3 -4.5
v 4.2 7.2 -4.5
v 4.1 7.5 -4.5
v 4.1 7.3 -4.5
v 4.5 7.5 -4.6
v 4.5 7.3 -4.6
v 4.2 7.5 -4.6
v 4.2 7.3 -4.6
v 4.5 7.5 -4.1
v 4.2 7.5 -4.1
v 4.6 7.5 -4.2
v 4.5 7.5 -4.2
v 4.2 7.5 -4.2
v 4.1 7.5 -4.2
v 4.6 7.5 -4.5
v 4.5 7.5 -4.5
v 4.2 7.5 -4.5
v 4.1 7.5 -4.5
v 4.5 7.5 -4.6
v 4.2 7.5 -4.6
v 4.5 7.3 -4.1
v 4.2 7.3 -4.1
v 4.6 7.3 -4.2
v 4.5 7.3 -4.2
v 4.2 7.3 -4.2
v 4.1 7.3 -4.2
v 4.6 7.3 -4.5
v 4.5 7.3 -4.5
v 4.2 7.3 -4.5
v 4.1 7.3 -4.5
v 4.5 7.3 -4.6
v 4.2 7.3 -4.6
v 4.5 7.2 -4.2
v 4.2 7.2 -4.2
v 4.5 7.2 -4.5
v 4.2 7.2 -4.5

# faces
f 3/2/1 2/2/1 1/2/1
f 4/2/1 2/2/1 3/2/1
f 9/2/1 6/2/1 5/2/1
f 10/2/1 6/2/1 9/2/1
f 11/2/1 8/2/1 7/2/1
f 12/2/1 8/2/1 11/2/1
f 13/1/1 11/1/1 10/1/1
f 14/1/1 11/1/1 13/1/1
f 15/2/2 16/2/2 19/2/2
f 19/2/2 16/2/2 20/2/2
f 17/2/2 18/2/2 21/2/2
f 21/2/2 18/2/2 22/2/2
f 20/1/2 21/1/2 23/1/2
f 23/1/2 21/1/2 24/1/2
f 25/2/2 26/2/2 27/2/2
f 27/2/2 26/2/2 28/2/2
f 31/2/3 30/2/3 29/2/3
f 32/2/3 30/2/3 31/2/3
f 35/2/3 34/2/3 33/2/3
f 36/2/3 34/2/3 35/2/3
f 39/1/3 37/1/3 36/1/3
f 40/1/3 37/1/3 39/1/3
f 41/2/3 39/2/3 38/2/3
f 42/2/3 39/2/3 41/2/3
f 43/2/4 44/2/4 45/2/4
f 45/2/4 44/2/4 46/2/4
f 46/1/4 47/1/4 49/1/4
f 49/1/4 47/1/4 50/1/4
f 48/2/4 49/2/4 51/2/4
f 51/2/4 49/2/4 52/2/4
f 53/2/4 54/2/4 55/2/4
f 55/2/4 54/2/4 56/2/4
f 60/2/5 58/2/5 57/2/5
f 61/2/5 58/2/5 60/2/5
f 63/2/5 60/2/5 59/2/5
f 63/2/5 62/2/5 61/2/5
f 63/2/5 61/2/5 60/2/5
f 64/2/5 62/2/5 63/2/5
f 65/2/5 62/2/5 64/2/5
f 66/2/5 62/2/5 65/2/5
f 67/2/5 65/2/5 64/2/5
f 68/2/5 65/2/5 67/2/5
f 69/2/6 70/2/6 72/2/6
f 72/2/6 70/2/6 73/2/6
f 71/2/6 72/2/6 75/2/6
f 75/2/6 72/2/6 76/2/6
f 73/2/6 74/2/6 77/2/6
f 77/2/6 74/2/6 78/2/6
f 76/2/6 77/2/6 79/2/6
f 79/2/6 77/2/6 80/2/6
f 81/1/6 82/1/6 83/1/6
f 83/1/6 82/1/6 84/1/6
